<svg xmlns="http://www.w3.org/2000/svg" version="1.1" width="334px" height="152px" style="shape-rendering:geometricPrecision; text-rendering:geometricPrecision; image-rendering:optimizeQuality; fill-rule:evenodd; clip-rule:evenodd" xmlns:xlink="http://www.w3.org/1999/xlink">
<g><path style="opacity:1" fill="#d987e6" d="M 23.5,-0.5 C 29.5,-0.5 35.5,-0.5 41.5,-0.5C 42.1667,0.166667 42.8333,0.833333 43.5,1.5C 41.5,1.5 39.5,1.5 37.5,1.5C 32.2197,0.338926 26.8864,0.338926 21.5,1.5C 22.1667,0.833333 22.8333,0.166667 23.5,-0.5 Z"/></g>
<g><path style="opacity:1" fill="#da88eb" d="M 106.5,-0.5 C 109.167,-0.5 111.833,-0.5 114.5,-0.5C 115.167,0.166667 115.833,0.833333 116.5,1.5C 112.466,1.50454 108.466,1.83787 104.5,2.5C 105.167,1.5 105.833,0.5 106.5,-0.5 Z"/></g>
<g><path style="opacity:1" fill="#db8fea" d="M 20.5,1.5 C 20.5,2.5 20.5,3.5 20.5,4.5C 17.5491,4.2872 14.8825,4.95386 12.5,6.5C 14.4844,3.83612 17.1511,2.16945 20.5,1.5 Z"/></g>
<g><path style="opacity:1" fill="#df6df4" d="M 37.5,1.5 C 39.0419,2.16348 40.7086,2.83015 42.5,3.5C 42.1131,4.71986 41.2798,5.38652 40,5.5C 33.5211,5.65316 27.0211,5.31983 20.5,4.5C 20.5,3.5 20.5,2.5 20.5,1.5C 20.8333,1.5 21.1667,1.5 21.5,1.5C 26.8864,0.338926 32.2197,0.338926 37.5,1.5 Z"/></g>
<g><path style="opacity:1" fill="#e1ace9" d="M 45.5,2.5 C 47.7727,2.95681 49.106,4.29014 49.5,6.5C 48.8333,6.16667 48.1667,5.83333 47.5,5.5C 46.4489,4.77765 45.7822,3.77765 45.5,2.5 Z"/></g>
<g><path style="opacity:1" fill="#de78ee" d="M 37.5,1.5 C 39.5,1.5 41.5,1.5 43.5,1.5C 44.4916,1.32842 45.1583,1.66175 45.5,2.5C 45.7822,3.77765 46.4489,4.77765 47.5,5.5C 46.7326,6.17197 46.0659,7.0053 45.5,8C 42.8333,8.33333 40.1667,8.66667 37.5,9C 36.944,9.38258 36.6107,9.88258 36.5,10.5C 31.248,5.27262 25.9146,5.27262 20.5,10.5C 20.5,8.5 20.5,6.5 20.5,4.5C 27.0211,5.31983 33.5211,5.65316 40,5.5C 41.2798,5.38652 42.1131,4.71986 42.5,3.5C 40.7086,2.83015 39.0419,2.16348 37.5,1.5 Z"/></g>
<g><path style="opacity:1" fill="#dd79ef" d="M 116.5,1.5 C 117.71,1.93205 118.71,2.59872 119.5,3.5C 119.5,5.5 119.5,7.5 119.5,9.5C 116.882,13.7405 114.548,18.0738 112.5,22.5C 112.33,19.7338 111.664,17.0672 110.5,14.5C 111.216,10.5779 111.883,10.5779 112.5,14.5C 113.5,14.5 114.5,14.5 115.5,14.5C 114.737,11.8589 114.57,9.19224 115,6.5C 116.185,8.55929 117.352,8.72596 118.5,7C 117.494,5.66203 116.494,4.32869 115.5,3C 110.737,2.37824 109.737,2.5449 112.5,3.5C 112.5,4.5 112.5,5.5 112.5,6.5C 109.744,7.25408 107.078,7.25408 104.5,6.5C 104.5,5.16667 104.5,3.83333 104.5,2.5C 108.466,1.83787 112.466,1.50454 116.5,1.5 Z"/></g>
<g><path style="opacity:1" fill="#e0a2e7" d="M 119.5,3.5 C 121.994,5.40599 121.994,7.40599 119.5,9.5C 119.5,7.5 119.5,5.5 119.5,3.5 Z"/></g>
<g><path style="opacity:1" fill="#dc9fe7" d="M 12.5,6.5 C 11.5,8.16667 10.1667,9.5 8.5,10.5C 8.16667,10.5 7.83333,10.5 7.5,10.5C 8.58457,8.41311 10.2512,7.07978 12.5,6.5 Z"/></g>
<g><path style="opacity:1" fill="#e16cf4" d="M 112.5,22.5 C 111.504,22.5858 110.671,22.2524 110,21.5C 109.506,23.1341 109.34,24.8008 109.5,26.5C 107.201,25.3678 105.868,23.5345 105.5,21C 106.011,17.7574 106.678,14.5907 107.5,11.5C 105.958,10.8365 104.291,10.1698 102.5,9.5C 102.942,8.26133 103.609,7.26133 104.5,6.5C 107.078,7.25408 109.744,7.25408 112.5,6.5C 112.5,5.5 112.5,4.5 112.5,3.5C 109.737,2.5449 110.737,2.37824 115.5,3C 116.494,4.32869 117.494,5.66203 118.5,7C 117.352,8.72596 116.185,8.55929 115,6.5C 114.57,9.19224 114.737,11.8589 115.5,14.5C 114.5,14.5 113.5,14.5 112.5,14.5C 111.883,10.5779 111.216,10.5779 110.5,14.5C 111.664,17.0672 112.33,19.7338 112.5,22.5 Z"/></g>
<g><path style="opacity:0.925" fill="#ddaee7" d="M 7.5,10.5 C 7.57298,12.0269 6.90632,13.0269 5.5,13.5C 5.42702,11.9731 6.09368,10.9731 7.5,10.5 Z"/></g>
<g><path style="opacity:1" fill="#e16cf4" d="M 20.5,4.5 C 20.5,6.5 20.5,8.5 20.5,10.5C 18.076,10.1924 15.7427,10.5258 13.5,11.5C 13.8457,12.6956 14.3457,12.6956 15,11.5C 15.4828,12.448 15.6495,13.448 15.5,14.5C 14.448,14.3505 13.448,14.5172 12.5,15C 13.6405,15.7412 13.6405,16.5745 12.5,17.5C 10.604,18.4656 8.60395,18.7989 6.5,18.5C 7.16667,15.8333 7.83333,13.1667 8.5,10.5C 10.1667,9.5 11.5,8.16667 12.5,6.5C 14.8825,4.95386 17.5491,4.2872 20.5,4.5 Z"/></g>
<g><path style="opacity:1" fill="#dd7bed" d="M 7.5,10.5 C 7.83333,10.5 8.16667,10.5 8.5,10.5C 7.83333,13.1667 7.16667,15.8333 6.5,18.5C 8.60395,18.7989 10.604,18.4656 12.5,17.5C 13.6405,16.5745 13.6405,15.7412 12.5,15C 13.448,14.5172 14.448,14.3505 15.5,14.5C 15.6495,13.448 15.4828,12.448 15,11.5C 14.3457,12.6956 13.8457,12.6956 13.5,11.5C 15.7427,10.5258 18.076,10.1924 20.5,10.5C 17.1071,14.6192 14.7738,19.2858 13.5,24.5C 11.9261,26.1016 11.2594,28.1016 11.5,30.5C 10.8525,28.5018 10.0192,26.5018 9,24.5C 8.78107,25.938 8.28107,27.2713 7.5,28.5C 7.16667,28 6.83333,27.5 6.5,27C 7.45894,24.8801 7.6256,22.7135 7,20.5C 5.98873,19.6634 4.82207,19.33 3.5,19.5C 1.67035,24.2912 0.670352,29.2912 0.5,34.5C 0.166667,34.5 -0.166667,34.5 -0.5,34.5C -0.5,30.5 -0.5,26.5 -0.5,22.5C 0.743612,19.0177 2.74361,16.0177 5.5,13.5C 6.90632,13.0269 7.57298,12.0269 7.5,10.5 Z"/></g>
<g><path style="opacity:1" fill="#e06ff3" d="M 47.5,5.5 C 48.1667,5.83333 48.8333,6.16667 49.5,6.5C 49.5,8.5 49.5,10.5 49.5,12.5C 48.8501,12.1961 48.1835,11.8627 47.5,11.5C 45.4133,14.378 43.58,17.378 42,20.5C 41.8417,24.2229 42.3417,27.8896 43.5,31.5C 41.1651,32.2783 39.1651,31.6117 37.5,29.5C 38.6085,28.71 39.9419,28.21 41.5,28C 40.5204,22.8222 39.1871,17.6555 37.5,12.5C 36.6618,12.1583 36.3284,11.4916 36.5,10.5C 36.6107,9.88258 36.944,9.38258 37.5,9C 40.1667,8.66667 42.8333,8.33333 45.5,8C 46.0659,7.0053 46.7326,6.17197 47.5,5.5 Z"/></g>
<g><path style="opacity:1" fill="#e06df3" d="M 107.5,11.5 C 106.678,14.5907 106.011,17.7574 105.5,21C 105.868,23.5345 107.201,25.3678 109.5,26.5C 107.338,29.8323 106.004,33.4989 105.5,37.5C 104.85,37.1961 104.183,36.8627 103.5,36.5C 102.833,37.8333 102.167,39.1667 101.5,40.5C 99.0769,39.2882 98.0769,37.2882 98.5,34.5C 98.4963,30.9726 98.1629,27.4726 97.5,24C 98.7037,21.0025 99.5371,17.8359 100,14.5C 101.995,12.253 104.495,11.253 107.5,11.5 Z"/></g>
<g><path style="opacity:1" fill="#de6ef2" d="M 49.5,6.5 C 50.4013,7.29049 51.0679,8.29049 51.5,9.5C 51.8473,16.9752 51.1806,24.3085 49.5,31.5C 48.391,31.4431 47.391,31.1098 46.5,30.5C 45.6311,28.016 44.9644,25.3493 44.5,22.5C 45.6906,18.785 47.3573,15.4516 49.5,12.5C 49.5,10.5 49.5,8.5 49.5,6.5 Z"/></g>
<g><path style="opacity:1" fill="#dd9fe7" d="M 51.5,9.5 C 52.2979,12.1711 52.9646,15.0044 53.5,18C 52.5119,25.1168 50.8452,31.9501 48.5,38.5C 48.448,36.0971 48.7814,33.7638 49.5,31.5C 51.1806,24.3085 51.8473,16.9752 51.5,9.5 Z"/></g>
<g><path style="opacity:1" fill="#e16cf3" d="M 11.5,30.5 C 11.5,34.1667 11.5,37.8333 11.5,41.5C 9.06276,41.2437 6.72942,40.5771 4.5,39.5C 3.38752,37.5808 2.05419,35.9142 0.5,34.5C 0.670352,29.2912 1.67035,24.2912 3.5,19.5C 4.82207,19.33 5.98873,19.6634 7,20.5C 7.6256,22.7135 7.45894,24.8801 6.5,27C 6.83333,27.5 7.16667,28 7.5,28.5C 8.28107,27.2713 8.78107,25.938 9,24.5C 10.0192,26.5018 10.8525,28.5018 11.5,30.5 Z"/></g>
<g><path style="opacity:1" fill="#e36bf6" d="M 49.5,12.5 C 47.3573,15.4516 45.6906,18.785 44.5,22.5C 44.9644,25.3493 45.6311,28.016 46.5,30.5C 47.4349,33.1128 47.6015,35.7795 47,38.5C 46.3333,37.1667 45.6667,37.1667 45,38.5C 44.7811,39.938 44.2811,41.2713 43.5,42.5C 42.914,42.2907 42.414,41.9574 42,41.5C 41.6667,39.1667 41.3333,36.8333 41,34.5C 39.6054,33.1854 38.6054,33.5188 38,35.5C 37.5045,33.5273 37.3379,31.5273 37.5,29.5C 39.1651,31.6117 41.1651,32.2783 43.5,31.5C 42.3417,27.8896 41.8417,24.2229 42,20.5C 43.58,17.378 45.4133,14.378 47.5,11.5C 48.1835,11.8627 48.8501,12.1961 49.5,12.5 Z"/></g>
<g><path style="opacity:1" fill="#db7eec" d="M 104.5,2.5 C 104.5,3.83333 104.5,5.16667 104.5,6.5C 103.609,7.26133 102.942,8.26133 102.5,9.5C 104.291,10.1698 105.958,10.8365 107.5,11.5C 104.495,11.253 101.995,12.253 100,14.5C 99.5371,17.8359 98.7037,21.0025 97.5,24C 98.1629,27.4726 98.4963,30.9726 98.5,34.5C 96.955,33.7703 96.1216,32.437 96,30.5C 93.9688,35.018 91.8022,39.3514 89.5,43.5C 92.8329,29.1308 97.8329,15.4641 104.5,2.5 Z"/></g>
<g><path style="opacity:1" fill="#de7dee" d="M 37.5,12.5 C 39.1871,17.6555 40.5204,22.8222 41.5,28C 39.9419,28.21 38.6085,28.71 37.5,29.5C 37.3379,31.5273 37.5045,33.5273 38,35.5C 38.6054,33.5188 39.6054,33.1854 41,34.5C 41.3333,36.8333 41.6667,39.1667 42,41.5C 42.414,41.9574 42.914,42.2907 43.5,42.5C 44.2811,41.2713 44.7811,39.938 45,38.5C 45.6667,37.1667 46.3333,37.1667 47,38.5C 47.6015,35.7795 47.4349,33.1128 46.5,30.5C 47.391,31.1098 48.391,31.4431 49.5,31.5C 48.7814,33.7638 48.448,36.0971 48.5,38.5C 48.1417,41.2666 47.475,43.9333 46.5,46.5C 45.8826,46.6107 45.3826,46.944 45,47.5C 44.5045,49.4727 44.3379,51.4727 44.5,53.5C 44.7845,55.4147 44.4511,57.0813 43.5,58.5C 43.5,57.5 43.5,56.5 43.5,55.5C 43.6641,52.8127 43.4974,50.146 43,47.5C 41.1294,46.0027 40.1294,44.0027 40,41.5C 38.8904,39.9632 37.3904,39.2965 35.5,39.5C 35.5,38.1667 35.5,36.8333 35.5,35.5C 37.0651,27.9242 37.7318,20.2575 37.5,12.5 Z"/></g>
<g><path style="opacity:1" fill="#de90ed" d="M 112.5,22.5 C 109.806,30.2521 107.139,37.9188 104.5,45.5C 104.579,44.0695 104.246,42.7362 103.5,41.5C 104.63,40.3777 105.297,39.0443 105.5,37.5C 106.004,33.4989 107.338,29.8323 109.5,26.5C 109.34,24.8008 109.506,23.1341 110,21.5C 110.671,22.2524 111.504,22.5858 112.5,22.5 Z"/></g>
<g><path style="opacity:1" fill="#dc8be8" d="M 210.5,33.5 C 205.029,32.9796 201.529,35.313 200,40.5C 198.203,37.9041 196.869,38.2374 196,41.5C 195.506,43.1341 195.34,44.8008 195.5,46.5C 193.078,42.7096 193.744,39.2096 197.5,36C 201.648,33.0899 205.982,32.2566 210.5,33.5 Z"/></g>
<g><path style="opacity:1" fill="#df6df2" d="M 98.5,34.5 C 98.0769,37.2882 99.0769,39.2882 101.5,40.5C 102.167,39.1667 102.833,37.8333 103.5,36.5C 104.183,36.8627 104.85,37.1961 105.5,37.5C 105.297,39.0443 104.63,40.3777 103.5,41.5C 104.246,42.7362 104.579,44.0695 104.5,45.5C 104.5,45.8333 104.5,46.1667 104.5,46.5C 103.022,47.4475 102.022,48.7809 101.5,50.5C 101.631,49.7611 101.464,49.0944 101,48.5C 100.581,49.6721 99.9147,50.6721 99,51.5C 97.9207,48.9373 97.4207,46.2706 97.5,43.5C 96.5,43.5 95.5,43.5 94.5,43.5C 94.4571,46.8674 94.7904,50.2008 95.5,53.5C 95.2177,56.1308 94.5511,58.6308 93.5,61C 93.1667,61.1667 92.8333,61.3333 92.5,61.5C 92.1667,59.8333 91.8333,58.1667 91.5,56.5C 92.0081,53.1509 92.1747,49.8175 92,46.5C 91.3292,47.2524 90.4959,47.5858 89.5,47.5C 89.5,46.5 89.5,45.5 89.5,44.5C 89.5,44.1667 89.5,43.8333 89.5,43.5C 91.8022,39.3514 93.9688,35.018 96,30.5C 96.1216,32.437 96.955,33.7703 98.5,34.5 Z"/></g>
<g><path style="opacity:1" fill="#d187df" d="M 13.5,24.5 C 12.1667,30.1667 12.1667,35.8333 13.5,41.5C 12.4324,42.4345 11.099,42.7678 9.5,42.5C 4.88679,42.5306 1.55346,40.5306 -0.5,36.5C -0.5,35.8333 -0.5,35.1667 -0.5,34.5C -0.166667,34.5 0.166667,34.5 0.5,34.5C 2.05419,35.9142 3.38752,37.5808 4.5,39.5C 6.72942,40.5771 9.06276,41.2437 11.5,41.5C 11.5,37.8333 11.5,34.1667 11.5,30.5C 11.2594,28.1016 11.9261,26.1016 13.5,24.5 Z"/></g>
<g><path style="opacity:0.502" fill="#e0cee6" d="M 13.5,41.5 C 14.0431,41.56 14.3764,41.8933 14.5,42.5C 12.7015,43.7879 11.0348,43.7879 9.5,42.5C 11.099,42.7678 12.4324,42.4345 13.5,41.5 Z"/></g>
<g><path style="opacity:1" fill="#dc8cea" d="M 35.5,35.5 C 35.5,36.8333 35.5,38.1667 35.5,39.5C 35.5,41.1667 35.5,42.8333 35.5,44.5C 34.2741,46.9424 32.9408,49.2758 31.5,51.5C 32.2317,45.9063 33.565,40.5729 35.5,35.5 Z"/></g>
<g><path style="opacity:1" fill="#d990e7" d="M 213.5,34.5 C 216.523,40.0258 215.19,44.5258 209.5,48C 205.928,49.4049 202.261,49.7383 198.5,49C 197.058,48.6232 196.058,47.7899 195.5,46.5C 199.446,47.5269 203.446,47.6936 207.5,47C 209.037,45.8904 209.703,44.3904 209.5,42.5C 210.833,42.5 212.167,42.5 213.5,42.5C 213.5,39.8333 213.5,37.1667 213.5,34.5 Z"/></g>
<g><path style="opacity:1" fill="#df6ff3" d="M 210.5,33.5 C 211.791,33.2627 212.791,33.596 213.5,34.5C 213.5,37.1667 213.5,39.8333 213.5,42.5C 212.167,42.5 210.833,42.5 209.5,42.5C 209.703,44.3904 209.037,45.8904 207.5,47C 203.446,47.6936 199.446,47.5269 195.5,46.5C 195.34,44.8008 195.506,43.1341 196,41.5C 196.869,38.2374 198.203,37.9041 200,40.5C 201.529,35.313 205.029,32.9796 210.5,33.5 Z"/></g>
<g><path style="opacity:1" fill="#e26cf6" d="M 35.5,39.5 C 37.3904,39.2965 38.8904,39.9632 40,41.5C 40.1294,44.0027 41.1294,46.0027 43,47.5C 43.4974,50.146 43.6641,52.8127 43.5,55.5C 42.0014,54.3218 41.0014,52.6551 40.5,50.5C 38.8893,53.2198 38.056,56.2198 38,59.5C 36.8333,58.3333 35.6667,57.1667 34.5,56C 36.1433,53.7459 37.4767,51.2459 38.5,48.5C 38.2133,46.5567 37.2133,45.2233 35.5,44.5C 35.5,42.8333 35.5,41.1667 35.5,39.5 Z"/></g>
<g><path style="opacity:1" fill="#e26bf6" d="M 101.5,50.5 C 100.833,52.5 100.167,54.5 99.5,56.5C 96.6803,57.4647 95.3469,59.4647 95.5,62.5C 93.4727,62.6621 91.4727,62.4955 89.5,62C 90.8882,61.1107 90.7215,60.6107 89,60.5C 88.228,60.6448 87.5613,60.9781 87,61.5C 87.0833,58.8806 87.25,56.214 87.5,53.5C 88.2852,51.6264 88.9518,49.6264 89.5,47.5C 90.4959,47.5858 91.3292,47.2524 92,46.5C 92.1747,49.8175 92.0081,53.1509 91.5,56.5C 91.8333,58.1667 92.1667,59.8333 92.5,61.5C 92.8333,61.3333 93.1667,61.1667 93.5,61C 94.5511,58.6308 95.2177,56.1308 95.5,53.5C 94.7904,50.2008 94.4571,46.8674 94.5,43.5C 95.5,43.5 96.5,43.5 97.5,43.5C 97.4207,46.2706 97.9207,48.9373 99,51.5C 99.9147,50.6721 100.581,49.6721 101,48.5C 101.464,49.0944 101.631,49.7611 101.5,50.5 Z"/></g>
<g><path style="opacity:1" fill="#d99fe5" d="M 46.5,46.5 C 46.2785,49.0673 45.6118,51.4006 44.5,53.5C 44.3379,51.4727 44.5045,49.4727 45,47.5C 45.3826,46.944 45.8826,46.6107 46.5,46.5 Z"/></g>
<g><path style="opacity:1" fill="#d9a1e4" d="M 131.5,53.5 C 130.305,53.3225 129.138,52.9891 128,52.5C 126.594,53.4138 125.094,54.0805 123.5,54.5C 126.09,50.1251 128.756,49.7918 131.5,53.5 Z"/></g>
<g><path style="opacity:1" fill="#dd8ee9" d="M 89.5,44.5 C 89.5,45.5 89.5,46.5 89.5,47.5C 88.9518,49.6264 88.2852,51.6264 87.5,53.5C 86.8333,53.8333 86.1667,54.1667 85.5,54.5C 86.3208,50.8733 87.6541,47.54 89.5,44.5 Z"/></g>
<g><path style="opacity:1" fill="#d98ae7" d="M 104.5,46.5 C 102.455,55.3527 100.122,64.0193 97.5,72.5C 97.8808,67.123 98.5475,61.7897 99.5,56.5C 100.167,54.5 100.833,52.5 101.5,50.5C 102.022,48.7809 103.022,47.4475 104.5,46.5 Z"/></g>
<g><path style="opacity:0.741" fill="#e2c0e7" d="M 302.5,54.5 C 300.265,54.2053 298.265,54.5386 296.5,55.5C 295.833,55.5 295.167,55.5 294.5,55.5C 295.492,53.9735 296.992,53.3068 299,53.5C 300.385,53.5143 301.551,53.8476 302.5,54.5 Z"/></g>
<g><path style="opacity:1" fill="#df72f1" d="M 87.5,53.5 C 87.25,56.214 87.0833,58.8806 87,61.5C 87.5613,60.9781 88.228,60.6448 89,60.5C 90.7215,60.6107 90.8882,61.1107 89.5,62C 91.4727,62.4955 93.4727,62.6621 95.5,62.5C 95.3469,59.4647 96.6803,57.4647 99.5,56.5C 98.5475,61.7897 97.8808,67.123 97.5,72.5C 97.5,72.8333 97.5,73.1667 97.5,73.5C 95.631,75.6353 94.9644,78.3019 95.5,81.5C 94.9667,85.9648 93.9667,90.2981 92.5,94.5C 91.5,94.5 90.5,94.5 89.5,94.5C 89.5405,97.8806 89.2071,101.214 88.5,104.5C 88.1667,104.5 87.8333,104.5 87.5,104.5C 87.4533,101.432 86.9533,98.4318 86,95.5C 81.7494,94.3815 81.5827,93.0481 85.5,91.5C 86.6338,87.432 87.9671,83.432 89.5,79.5C 91.0709,78.6906 92.7376,78.3573 94.5,78.5C 93.2995,73.515 92.1329,68.515 91,63.5C 86.5487,67.4575 86.3821,71.6242 90.5,76C 89.9681,78.0197 88.6348,78.853 86.5,78.5C 86.6655,74.4862 86.4988,70.4862 86,66.5C 83.741,72.0297 82.5743,71.6964 82.5,65.5C 84.6477,65.6106 84.981,64.944 83.5,63.5C 84.9332,60.667 85.5999,57.667 85.5,54.5C 86.1667,54.1667 86.8333,53.8333 87.5,53.5 Z"/></g>
<g><path style="opacity:0.953" fill="#ddace7" d="M 247.5,59.5 C 244.855,61.3104 241.855,62.3104 238.5,62.5C 240.956,60.1324 243.956,59.1324 247.5,59.5 Z"/></g>
<g><path style="opacity:1" fill="#d481e3" d="M 294.5,55.5 C 295.167,55.5 295.833,55.5 296.5,55.5C 294.263,59.1141 293.263,63.1141 293.5,67.5C 292.778,68.5511 291.778,69.2178 290.5,69.5C 291.252,66.2527 291.752,62.9194 292,59.5C 292.608,57.9336 293.442,56.6002 294.5,55.5 Z"/></g>
<g><path style="opacity:1" fill="#da7dea" d="M 31.5,51.5 C 31.7907,57.8787 32.7907,64.0454 34.5,70C 34.1667,72.8333 33.8333,75.6667 33.5,78.5C 32.6735,74.5408 32.1735,70.5408 32,66.5C 31.586,66.0426 31.086,65.7093 30.5,65.5C 28.9545,72.9182 29.6212,80.0849 32.5,87C 31.944,87.3826 31.6107,87.8826 31.5,88.5C 28.1791,84.1792 26.8457,79.1792 27.5,73.5C 27.5579,65.8075 28.8913,58.4742 31.5,51.5 Z"/></g>
<g><path style="opacity:1" fill="#e070f3" d="M 35.5,44.5 C 37.2133,45.2233 38.2133,46.5567 38.5,48.5C 37.4767,51.2459 36.1433,53.7459 34.5,56C 35.6667,57.1667 36.8333,58.3333 38,59.5C 38.056,56.2198 38.8893,53.2198 40.5,50.5C 41.0014,52.6551 42.0014,54.3218 43.5,55.5C 43.5,56.5 43.5,57.5 43.5,58.5C 42.7588,64.4707 42.4255,70.4707 42.5,76.5C 42.7771,79.4475 42.4438,82.2809 41.5,85C 42.0944,85.4643 42.7611,85.631 43.5,85.5C 43.6567,86.8734 43.49,88.2068 43,89.5C 40.1217,88.3114 37.2883,86.9781 34.5,85.5C 33.6143,86.325 33.281,87.325 33.5,88.5C 32.8333,88.5 32.1667,88.5 31.5,88.5C 31.6107,87.8826 31.944,87.3826 32.5,87C 29.6212,80.0849 28.9545,72.9182 30.5,65.5C 31.086,65.7093 31.586,66.0426 32,66.5C 32.1735,70.5408 32.6735,74.5408 33.5,78.5C 33.8333,75.6667 34.1667,72.8333 34.5,70C 32.7907,64.0454 31.7907,57.8787 31.5,51.5C 32.9408,49.2758 34.2741,46.9424 35.5,44.5 Z"/></g>
<g><path style="opacity:1" fill="#d582e5" d="M 122.5,56.5 C 123.108,61.9443 122.442,66.9443 120.5,71.5C 120.773,67.2486 120.94,62.9153 121,58.5C 121.278,57.5842 121.778,56.9175 122.5,56.5 Z"/></g>
<g><path style="opacity:1" fill="#df76f0" d="M 131.5,53.5 C 132.169,56.9999 132.336,60.6666 132,64.5C 136.643,67.3174 140.81,70.6508 144.5,74.5C 144.5,75.1667 144.5,75.8333 144.5,76.5C 142.5,76.5 140.5,76.5 138.5,76.5C 138.461,75.4168 138.127,74.4168 137.5,73.5C 138.167,73.1667 138.833,72.8333 139.5,72.5C 135.466,71.0406 131.466,69.3739 127.5,67.5C 127.167,68 126.833,68.5 126.5,69C 127.429,70.0769 128.096,71.2436 128.5,72.5C 128.167,72.5 127.833,72.5 127.5,72.5C 126.833,73.5 126.167,74.5 125.5,75.5C 121.584,77.2628 119.917,75.9294 120.5,71.5C 122.442,66.9443 123.108,61.9443 122.5,56.5C 122.328,55.5084 122.662,54.8417 123.5,54.5C 125.094,54.0805 126.594,53.4138 128,52.5C 129.138,52.9891 130.305,53.3225 131.5,53.5 Z"/></g>
<g><path style="opacity:1" fill="#e16cf5" d="M 296.5,55.5 C 298.167,55.5 299.833,55.5 301.5,55.5C 301.564,60.1928 301.231,64.8595 300.5,69.5C 301.33,73.1518 302.663,76.6518 304.5,80C 302.033,83.4366 300.533,87.2699 300,91.5C 299.617,90.944 299.117,90.6107 298.5,90.5C 297.957,89.2579 297.623,87.9245 297.5,86.5C 298.246,84.3233 299.246,82.3233 300.5,80.5C 297.631,76.5526 295.798,72.2192 295,67.5C 294.221,70.0972 293.721,70.0972 293.5,67.5C 293.263,63.1141 294.263,59.1141 296.5,55.5 Z"/></g>
<g><path style="opacity:1" fill="#dc87e9" d="M 85.5,54.5 C 85.5999,57.667 84.9332,60.667 83.5,63.5C 84.981,64.944 84.6477,65.6106 82.5,65.5C 81.1667,66.5 79.8333,67.5 78.5,68.5C 80.8527,63.7946 83.1861,59.1279 85.5,54.5 Z"/></g>
<g><path style="opacity:1" fill="#e16df5" d="M 87.5,104.5 C 86.3702,104.469 85.0369,104.802 83.5,105.5C 82.8333,102.5 82.1667,99.5 81.5,96.5C 80.8165,96.8627 80.1499,97.1961 79.5,97.5C 80.4851,92.8888 81.1518,88.2221 81.5,83.5C 81.8333,80.8333 82.1667,78.1667 82.5,75.5C 82.5,74.8333 82.1667,74.5 81.5,74.5C 78.9664,74.7409 77.2998,73.7409 76.5,71.5C 76.427,69.9731 77.0937,68.9731 78.5,68.5C 79.8333,67.5 81.1667,66.5 82.5,65.5C 82.5743,71.6964 83.741,72.0297 86,66.5C 86.4988,70.4862 86.6655,74.4862 86.5,78.5C 88.6348,78.853 89.9681,78.0197 90.5,76C 86.3821,71.6242 86.5487,67.4575 91,63.5C 92.1329,68.515 93.2995,73.515 94.5,78.5C 92.7376,78.3573 91.0709,78.6906 89.5,79.5C 87.9671,83.432 86.6338,87.432 85.5,91.5C 81.5827,93.0481 81.7494,94.3815 86,95.5C 86.9533,98.4318 87.4533,101.432 87.5,104.5 Z"/></g>
<g><path style="opacity:1" fill="#e07eef" d="M 262.5,65.5 C 262.5,66.1667 262.5,66.8333 262.5,67.5C 261.5,67.5 260.5,67.5 259.5,67.5C 259.511,63.6482 257.511,61.8149 253.5,62C 251.833,61.3333 250.167,61.3333 248.5,62C 249.973,62.7096 250.64,63.8762 250.5,65.5C 255.989,65.504 257.822,68.1707 256,73.5C 255.329,74.2524 254.496,74.5858 253.5,74.5C 253.5,72.1667 253.5,69.8333 253.5,67.5C 250.988,66.1326 248.655,66.466 246.5,68.5C 244.78,69.3077 243.113,70.3077 241.5,71.5C 240.833,71.5 240.167,71.5 239.5,71.5C 239.8,68.756 238.633,67.0894 236,66.5C 234.061,66.9543 232.228,67.621 230.5,68.5C 231.167,67.5 231.833,66.5 232.5,65.5C 234.216,63.9752 236.216,62.9752 238.5,62.5C 241.855,62.3104 244.855,61.3104 247.5,59.5C 251.604,58.3486 255.604,58.8486 259.5,61C 261.141,62.129 262.141,63.629 262.5,65.5 Z"/></g>
<g><path style="opacity:0.069" fill="#f3def6" d="M 253.5,67.5 C 251.283,68.3686 248.95,68.702 246.5,68.5C 248.655,66.466 250.988,66.1326 253.5,67.5 Z"/></g>
<g><path style="opacity:1" fill="#dd78ee" d="M 293.5,67.5 C 293.721,70.0972 294.221,70.0972 295,67.5C 295.798,72.2192 297.631,76.5526 300.5,80.5C 299.246,82.3233 298.246,84.3233 297.5,86.5C 297.623,87.9245 297.957,89.2579 298.5,90.5C 298.833,91.8333 299.167,93.1667 299.5,94.5C 299.818,99.0323 299.485,103.366 298.5,107.5C 298.073,99.7491 297.073,92.0825 295.5,84.5C 295.737,83.209 295.404,82.209 294.5,81.5C 294.5,81.1667 294.5,80.8333 294.5,80.5C 294.509,78.6916 294.009,77.0249 293,75.5C 292.283,76.0442 291.783,76.7109 291.5,77.5C 290.167,78.8333 288.833,78.8333 287.5,77.5C 287.5,76.8333 287.5,76.1667 287.5,75.5C 287.992,73.1815 288.992,71.1815 290.5,69.5C 291.778,69.2178 292.778,68.5511 293.5,67.5 Z"/></g>
<g><path style="opacity:0.945" fill="#dfb0e6" d="M 232.5,65.5 C 231.833,66.5 231.167,67.5 230.5,68.5C 229.609,69.1098 228.609,69.4431 227.5,69.5C 228.585,67.4131 230.251,66.0798 232.5,65.5 Z"/></g>
<g><path style="opacity:0.663" fill="#e1b4ea" d="M 184.5,67.5 C 184.573,69.0269 183.906,70.0269 182.5,70.5C 182.427,68.9731 183.094,67.9731 184.5,67.5 Z"/></g>
<g><path style="opacity:1" fill="#de98ea" d="M 197.5,65.5 C 198.622,67.2884 198.789,69.2884 198,71.5C 196.476,73.8981 194.976,76.2314 193.5,78.5C 193.337,76.1432 193.503,73.8098 194,71.5C 194.333,71.8333 194.667,72.1667 195,72.5C 196.413,70.3476 197.246,68.0143 197.5,65.5 Z"/></g>
<g><path style="opacity:1" fill="#df79ef" d="M 197.5,65.5 C 197.246,68.0143 196.413,70.3476 195,72.5C 194.667,72.1667 194.333,71.8333 194,71.5C 193.503,73.8098 193.337,76.1432 193.5,78.5C 192.833,81.844 191.166,84.5106 188.5,86.5C 188.5,85.8333 188.5,85.1667 188.5,84.5C 188.92,82.9064 189.586,81.4064 190.5,80C 190.095,79.0546 189.428,78.3879 188.5,78C 191.284,77.5638 192.45,76.0638 192,73.5C 189.347,73.3181 186.68,72.9847 184,72.5C 182.294,73.3079 181.461,74.6412 181.5,76.5C 183.75,76.1814 185.75,76.6814 187.5,78C 184.183,78.4983 180.85,78.665 177.5,78.5C 178.383,75.2957 180.05,72.6291 182.5,70.5C 183.906,70.0269 184.573,69.0269 184.5,67.5C 187.552,63.3067 191.552,61.9734 196.5,63.5C 197.298,63.9569 197.631,64.6236 197.5,65.5 Z"/></g>
<g><path style="opacity:0.098" fill="#f2dff4" d="M 239.5,71.5 C 240.167,71.5 240.833,71.5 241.5,71.5C 240.089,73.914 238.089,75.5806 235.5,76.5C 235.5,76.1667 235.5,75.8333 235.5,75.5C 237.167,74.5 238.5,73.1667 239.5,71.5 Z"/></g>
<g><path style="opacity:1" fill="#e08dee" d="M 76.5,71.5 C 77.2998,73.7409 78.9664,74.7409 81.5,74.5C 81.5,74.8333 81.5,75.1667 81.5,75.5C 80.8333,75.5 80.5,75.8333 80.5,76.5C 79.5569,79.1092 77.8903,81.1092 75.5,82.5C 75.1517,78.8226 75.8183,76.1559 77.5,74.5C 75.6776,74.8308 74.0109,75.4975 72.5,76.5C 73.1237,74.246 74.457,72.5794 76.5,71.5 Z"/></g>
<g><path style="opacity:0.239" fill="#f1def6" d="M 127.5,72.5 C 127.833,72.5 128.167,72.5 128.5,72.5C 129.5,72.8333 130.167,73.5 130.5,74.5C 128.973,74.573 127.973,73.9063 127.5,72.5 Z"/></g>
<g><path style="opacity:1" fill="#e06ef3" d="M 239.5,71.5 C 238.5,73.1667 237.167,74.5 235.5,75.5C 233.69,74.0449 232.023,74.2116 230.5,76C 234.456,77.1139 234.456,77.9473 230.5,78.5C 226.998,78.9236 224.665,77.5902 223.5,74.5C 223.833,73.8333 224.167,73.1667 224.5,72.5C 225.167,71.1667 226.167,70.1667 227.5,69.5C 228.609,69.4431 229.609,69.1098 230.5,68.5C 232.228,67.621 234.061,66.9543 236,66.5C 238.633,67.0894 239.8,68.756 239.5,71.5 Z"/></g>
<g><path style="opacity:1" fill="#dfa3eb" d="M 97.5,73.5 C 97.1977,76.3725 96.531,79.0392 95.5,81.5C 94.9644,78.3019 95.631,75.6353 97.5,73.5 Z"/></g>
<g><path style="opacity:1" fill="#e26df5" d="M 138.5,76.5 C 138.666,80.5138 138.499,84.5138 138,88.5C 137.066,87.1416 136.232,85.8083 135.5,84.5C 135.664,81.8127 135.497,79.146 135,76.5C 133.67,75.4178 132.17,74.7512 130.5,74.5C 130.167,73.5 129.5,72.8333 128.5,72.5C 128.096,71.2436 127.429,70.0769 126.5,69C 126.833,68.5 127.167,68 127.5,67.5C 131.466,69.3739 135.466,71.0406 139.5,72.5C 138.833,72.8333 138.167,73.1667 137.5,73.5C 138.127,74.4168 138.461,75.4168 138.5,76.5 Z"/></g>
<g><path style="opacity:0.396" fill="#edd6f1" d="M 224.5,72.5 C 224.167,73.1667 223.833,73.8333 223.5,74.5C 222.833,74.8333 222.167,75.1667 221.5,75.5C 221.5,73.5 222.5,72.5 224.5,72.5 Z"/></g>
<g><path style="opacity:1" fill="#da9ee4" d="M 262.5,65.5 C 263.643,68.9758 263.81,72.6425 263,76.5C 262.626,78.4913 261.793,80.158 260.5,81.5C 261.376,76.868 262.043,72.2014 262.5,67.5C 262.5,66.8333 262.5,66.1667 262.5,65.5 Z"/></g>
<g><path style="opacity:1" fill="#dc8eea" d="M 120.5,71.5 C 119.917,75.9294 121.584,77.2628 125.5,75.5C 124.674,78.4848 123.341,81.1515 121.5,83.5C 121.662,81.4727 121.495,79.4727 121,77.5C 120.329,76.7476 119.496,76.4142 118.5,76.5C 118.796,74.597 119.463,72.9303 120.5,71.5 Z"/></g>
<g><path style="opacity:1" fill="#e09ced" d="M 130.5,74.5 C 132.17,74.7512 133.67,75.4178 135,76.5C 135.497,79.146 135.664,81.8127 135.5,84.5C 135.5,85.1667 135.167,85.5 134.5,85.5C 135.113,81.0712 133.78,77.4046 130.5,74.5 Z"/></g>
<g><path style="opacity:0.006" fill="#f9eefb" d="M 294.5,80.5 C 293.728,79.3065 292.728,78.3065 291.5,77.5C 291.783,76.7109 292.283,76.0442 293,75.5C 294.009,77.0249 294.509,78.6916 294.5,80.5 Z"/></g>
<g><path style="opacity:1" fill="#e16bf5" d="M 188.5,84.5 C 187.057,83.6649 186.057,82.3316 185.5,80.5C 184.833,80.8333 184.167,81.1667 183.5,81.5C 182.985,85.4529 182.819,89.4529 183,93.5C 183.349,89.5408 181.683,86.8741 178,85.5C 177.503,83.1902 177.337,80.8568 177.5,78.5C 180.85,78.665 184.183,78.4983 187.5,78C 185.75,76.6814 183.75,76.1814 181.5,76.5C 181.461,74.6412 182.294,73.3079 184,72.5C 186.68,72.9847 189.347,73.3181 192,73.5C 192.45,76.0638 191.284,77.5638 188.5,78C 189.428,78.3879 190.095,79.0546 190.5,80C 189.586,81.4064 188.92,82.9064 188.5,84.5 Z"/></g>
<g><path style="opacity:0.71" fill="#d9ace2" d="M 287.5,75.5 C 287.5,76.1667 287.5,76.8333 287.5,77.5C 286.833,77.8333 286.167,78.1667 285.5,78.5C 285.427,76.9731 286.094,75.9731 287.5,75.5 Z"/></g>
<g><path style="opacity:0.859" fill="#e7bfee" d="M 80.5,76.5 C 80.5,75.8333 80.8333,75.5 81.5,75.5C 81.8333,75.5 82.1667,75.5 82.5,75.5C 82.1667,78.1667 81.8333,80.8333 81.5,83.5C 81.1667,83.5 80.8333,83.5 80.5,83.5C 80.8652,80.9213 80.8652,78.588 80.5,76.5 Z"/></g>
<g><path style="opacity:1" fill="#d68ae3" d="M 144.5,74.5 C 146.136,75.7489 147.303,77.4156 148,79.5C 148.667,83.5 148.667,87.5 148,91.5C 147.768,92.7375 147.268,93.7375 146.5,94.5C 146.559,91.3095 146.893,88.1429 147.5,85C 147.182,81.8772 146.182,79.0439 144.5,76.5C 144.5,75.8333 144.5,75.1667 144.5,74.5 Z"/></g>
<g><path style="opacity:1" fill="#de75ef" d="M 223.5,74.5 C 224.665,77.5902 226.998,78.9236 230.5,78.5C 230.611,79.1174 230.944,79.6174 231.5,80C 229.893,81.049 229.227,82.549 229.5,84.5C 228.649,86.8816 227.316,88.8816 225.5,90.5C 225.949,88.0225 225.283,86.0225 223.5,84.5C 222.833,85.5 222.167,86.5 221.5,87.5C 220.163,84.6095 218.163,83.9428 215.5,85.5C 215.5,84.8333 215.5,84.1667 215.5,83.5C 216.906,83.0269 217.573,82.0269 217.5,80.5C 218.604,78.6115 219.937,76.9448 221.5,75.5C 222.167,75.1667 222.833,74.8333 223.5,74.5 Z"/></g>
<g><path style="opacity:1" fill="#e06df4" d="M 262.5,67.5 C 262.043,72.2014 261.376,76.868 260.5,81.5C 258.871,83.0603 257.704,82.727 257,80.5C 255.272,81.3523 255.105,82.3523 256.5,83.5C 255.167,83.5 253.833,83.5 252.5,83.5C 252.704,80.4824 253.037,77.4824 253.5,74.5C 254.496,74.5858 255.329,74.2524 256,73.5C 257.822,68.1707 255.989,65.504 250.5,65.5C 250.64,63.8762 249.973,62.7096 248.5,62C 250.167,61.3333 251.833,61.3333 253.5,62C 257.511,61.8149 259.511,63.6482 259.5,67.5C 260.5,67.5 261.5,67.5 262.5,67.5 Z"/></g>
<g><path style="opacity:1" fill="#e06cf5" d="M 75.5,82.5 C 73.4727,82.6621 71.4727,82.4955 69.5,82C 71.3417,80.6545 72.3417,78.8211 72.5,76.5C 74.0109,75.4975 75.6776,74.8308 77.5,74.5C 75.8183,76.1559 75.1517,78.8226 75.5,82.5 Z"/></g>
<g><path style="opacity:1" fill="#deb0e6" d="M 43.5,80.5 C 45.1667,81.5 46.5,82.8333 47.5,84.5C 45.1667,84.1667 43.8333,82.8333 43.5,80.5 Z"/></g>
<g><path style="opacity:1" fill="#e091ee" d="M 235.5,75.5 C 235.5,75.8333 235.5,76.1667 235.5,76.5C 233.853,79.4735 231.853,82.1401 229.5,84.5C 229.227,82.549 229.893,81.049 231.5,80C 230.944,79.6174 230.611,79.1174 230.5,78.5C 234.456,77.9473 234.456,77.1139 230.5,76C 232.023,74.2116 233.69,74.0449 235.5,75.5 Z"/></g>
<g><path style="opacity:1" fill="#e099ed" d="M 260.5,81.5 C 259.551,83.7772 258.218,85.7772 256.5,87.5C 256.5,86.1667 256.5,84.8333 256.5,83.5C 255.105,82.3523 255.272,81.3523 257,80.5C 257.704,82.727 258.871,83.0603 260.5,81.5 Z"/></g>
<g><path style="opacity:0.549" fill="#eed5f3" d="M 294.5,81.5 C 295.404,82.209 295.737,83.209 295.5,84.5C 294.733,83.828 294.066,82.9947 293.5,82C 293.728,81.6012 294.062,81.4346 294.5,81.5 Z"/></g>
<g><path style="opacity:1" fill="#de8eeb" d="M 72.5,76.5 C 72.3417,78.8211 71.3417,80.6545 69.5,82C 71.4727,82.4955 73.4727,82.6621 75.5,82.5C 74.5,84.1667 73.1667,85.5 71.5,86.5C 71.1416,84.2988 69.8083,82.9655 67.5,82.5C 65.8273,84.0863 63.8273,84.7529 61.5,84.5C 65.6251,82.5907 69.2918,79.924 72.5,76.5 Z"/></g>
<g><path style="opacity:0.424" fill="#e6c7ed" d="M 217.5,80.5 C 217.573,82.0269 216.906,83.0269 215.5,83.5C 215.427,81.9731 216.094,80.9731 217.5,80.5 Z"/></g>
<g><path style="opacity:0.729" fill="#e1b6ea" d="M 249.5,80.5 C 247.833,84.1667 245.167,86.8333 241.5,88.5C 243.833,85.5 246.5,82.8333 249.5,80.5 Z"/></g>
<g><path style="opacity:1" fill="#e06df3" d="M 138.5,76.5 C 140.5,76.5 142.5,76.5 144.5,76.5C 146.182,79.0439 147.182,81.8772 147.5,85C 146.893,88.1429 146.559,91.3095 146.5,94.5C 146.5,94.8333 146.5,95.1667 146.5,95.5C 144.075,96.7736 142.075,98.4403 140.5,100.5C 140.631,101.376 140.298,102.043 139.5,102.5C 138.575,101.359 137.741,101.359 137,102.5C 137.124,104.843 137.624,107.177 138.5,109.5C 138.423,111.299 137.923,112.966 137,114.5C 136.51,113.207 136.343,111.873 136.5,110.5C 133.928,106.496 133.928,102.496 136.5,98.5C 134.583,97.1665 133.583,95.3331 133.5,93C 134.077,90.863 134.41,88.6963 134.5,86.5C 134.5,86.1667 134.5,85.8333 134.5,85.5C 135.167,85.5 135.5,85.1667 135.5,84.5C 136.232,85.8083 137.066,87.1416 138,88.5C 138.499,84.5138 138.666,80.5138 138.5,76.5 Z"/></g>
<g><path style="opacity:1" fill="#e080ef" d="M 296.5,55.5 C 298.265,54.5386 300.265,54.2053 302.5,54.5C 303.817,57.2301 303.817,60.0635 302.5,63C 304.064,69.1915 305.73,75.3582 307.5,81.5C 307.5,82.5 307.5,83.5 307.5,84.5C 306.5,84.5 305.5,84.5 304.5,84.5C 303.354,87.9432 302.021,91.2765 300.5,94.5C 300.167,94.5 299.833,94.5 299.5,94.5C 299.167,93.1667 298.833,91.8333 298.5,90.5C 299.117,90.6107 299.617,90.944 300,91.5C 300.533,87.2699 302.033,83.4366 304.5,80C 302.663,76.6518 301.33,73.1518 300.5,69.5C 301.231,64.8595 301.564,60.1928 301.5,55.5C 299.833,55.5 298.167,55.5 296.5,55.5 Z"/></g>
<g><path style="opacity:1" fill="#e16cf5" d="M 43.5,85.5 C 46.3626,85.9294 49.0293,86.9294 51.5,88.5C 52.2458,89.7362 52.5792,91.0695 52.5,92.5C 54.099,92.2322 55.4324,92.5655 56.5,93.5C 50.1667,93.5 43.8333,93.5 37.5,93.5C 36.5398,91.5393 35.2065,89.8726 33.5,88.5C 33.281,87.325 33.6143,86.325 34.5,85.5C 37.2883,86.9781 40.1217,88.3114 43,89.5C 43.49,88.2068 43.6567,86.8734 43.5,85.5 Z"/></g>
<g><path style="opacity:1" fill="#e08def" d="M 71.5,86.5 C 70.7377,88.2624 69.4044,89.2624 67.5,89.5C 66.653,88.0337 65.3197,87.2004 63.5,87C 66.146,86.5026 68.8127,86.3359 71.5,86.5 Z"/></g>
<g><path style="opacity:1" fill="#de8aed" d="M 287.5,77.5 C 288.833,78.8333 290.167,78.8333 291.5,77.5C 288.25,84.3398 284.25,90.6731 279.5,96.5C 278.539,94.7354 278.205,92.7354 278.5,90.5C 279.5,90.5 280.5,90.5 281.5,90.5C 281.308,87.1909 282.641,84.6909 285.5,83C 284.552,82.5172 283.552,82.3505 282.5,82.5C 282.738,80.5956 283.738,79.2623 285.5,78.5C 286.167,78.1667 286.833,77.8333 287.5,77.5 Z"/></g>
<g><path style="opacity:1" fill="#df75f0" d="M 42.5,76.5 C 43.4345,77.5676 43.7678,78.901 43.5,80.5C 43.8333,82.8333 45.1667,84.1667 47.5,84.5C 52.1819,87.0391 56.8486,87.0391 61.5,84.5C 63.8273,84.7529 65.8273,84.0863 67.5,82.5C 69.8083,82.9655 71.1416,84.2988 71.5,86.5C 68.8127,86.3359 66.146,86.5026 63.5,87C 65.3197,87.2004 66.653,88.0337 67.5,89.5C 66.3406,91.2503 64.674,92.2503 62.5,92.5C 60.4352,92.5172 58.4352,92.8505 56.5,93.5C 55.4324,92.5655 54.099,92.2322 52.5,92.5C 52.5792,91.0695 52.2458,89.7362 51.5,88.5C 49.0293,86.9294 46.3626,85.9294 43.5,85.5C 42.7611,85.631 42.0944,85.4643 41.5,85C 42.4438,82.2809 42.7771,79.4475 42.5,76.5 Z"/></g>
<g><path style="opacity:1" fill="#dc92e9" d="M 215.5,83.5 C 215.5,84.1667 215.5,84.8333 215.5,85.5C 215.269,88.0632 213.935,89.7298 211.5,90.5C 212.584,87.9959 213.917,85.6626 215.5,83.5 Z"/></g>
<g><path style="opacity:1" fill="#da8fe9" d="M 31.5,88.5 C 32.1667,88.5 32.8333,88.5 33.5,88.5C 35.2065,89.8726 36.5398,91.5393 37.5,93.5C 34.9108,92.5806 32.9108,90.914 31.5,88.5 Z"/></g>
<g><path style="opacity:0.176" fill="#f1e1f5" d="M 173.5,86.5 C 173.598,88.5529 172.931,90.2196 171.5,91.5C 171.402,89.4471 172.069,87.7804 173.5,86.5 Z"/></g>
<g><path style="opacity:1" fill="#db99e7" d="M 188.5,86.5 C 187.674,89.4848 186.341,92.1515 184.5,94.5C 184.292,90.9152 185.625,88.2485 188.5,86.5 Z"/></g>
<g><path style="opacity:1" fill="#dc94e7" d="M 307.5,81.5 C 309.61,85.5021 310.943,89.8354 311.5,94.5C 310.833,93.5 310.167,92.5 309.5,91.5C 308.833,89.1667 308.167,86.8333 307.5,84.5C 307.5,83.5 307.5,82.5 307.5,81.5 Z"/></g>
<g><path style="opacity:1" fill="#de74f1" d="M 177.5,78.5 C 177.337,80.8568 177.503,83.1902 178,85.5C 181.683,86.8741 183.349,89.5408 183,93.5C 182.819,89.4529 182.985,85.4529 183.5,81.5C 184.167,81.1667 184.833,80.8333 185.5,80.5C 186.057,82.3316 187.057,83.6649 188.5,84.5C 188.5,85.1667 188.5,85.8333 188.5,86.5C 185.625,88.2485 184.292,90.9152 184.5,94.5C 183.022,95.4475 182.022,96.7809 181.5,98.5C 180.254,86.1925 178.92,85.8592 177.5,97.5C 175.738,98.6885 174.738,100.355 174.5,102.5C 172.616,102.288 171.283,101.288 170.5,99.5C 169.817,99.8627 169.15,100.196 168.5,100.5C 168.5,99.8333 168.5,99.1667 168.5,98.5C 169.659,96.1454 170.659,93.8121 171.5,91.5C 172.931,90.2196 173.598,88.5529 173.5,86.5C 174.326,83.5152 175.659,80.8485 177.5,78.5 Z"/></g>
<g><path style="opacity:1" fill="#e16cf3" d="M 307.5,84.5 C 308.167,86.8333 308.833,89.1667 309.5,91.5C 309.949,94.2898 309.949,96.9564 309.5,99.5C 307.821,98.218 305.987,97.218 304,96.5C 301.401,100.339 300.234,99.6719 300.5,94.5C 302.021,91.2765 303.354,87.9432 304.5,84.5C 305.5,84.5 306.5,84.5 307.5,84.5 Z"/></g>
<g><path style="opacity:1" fill="#df70f2" d="M 253.5,74.5 C 253.037,77.4824 252.704,80.4824 252.5,83.5C 253.833,83.5 255.167,83.5 256.5,83.5C 256.5,84.8333 256.5,86.1667 256.5,87.5C 256.5,88.1667 256.167,88.5 255.5,88.5C 253.856,88.7135 252.356,88.3802 251,87.5C 250.228,88.8491 249.061,89.6824 247.5,90C 248.337,91.0113 248.67,92.1779 248.5,93.5C 246.219,93.0773 244.552,93.744 243.5,95.5C 241.571,95.7692 239.905,95.2692 238.5,94C 239.582,92.6703 240.249,91.1703 240.5,89.5C 240.5,88.8333 240.833,88.5 241.5,88.5C 245.167,86.8333 247.833,84.1667 249.5,80.5C 250.846,78.4632 252.18,76.4632 253.5,74.5 Z"/></g>
<g><path style="opacity:1" fill="#d99fe5" d="M 333.5,91.5 C 333.5,92.5 333.5,93.5 333.5,94.5C 332.833,95.5 332.167,96.5 331.5,97.5C 332.044,93.3601 331.044,92.6935 328.5,95.5C 329.043,92.1826 330.71,90.8492 333.5,91.5 Z"/></g>
<g><path style="opacity:1" fill="#db90e9" d="M 62.5,92.5 C 61.3998,93.5585 60.0664,94.3918 58.5,95C 55.1392,95.3367 51.8058,95.8367 48.5,96.5C 44.5176,96.1386 40.851,95.1386 37.5,93.5C 43.8333,93.5 50.1667,93.5 56.5,93.5C 58.4352,92.8505 60.4352,92.5172 62.5,92.5 Z"/></g>
<g><path style="opacity:1" fill="#e3b3ee" d="M 211.5,90.5 C 211.88,92.698 211.213,94.3646 209.5,95.5C 209.402,93.4471 210.069,91.7804 211.5,90.5 Z"/></g>
<g><path style="opacity:1" fill="#dd88ed" d="M 240.5,89.5 C 240.249,91.1703 239.582,92.6703 238.5,94C 239.905,95.2692 241.571,95.7692 243.5,95.5C 243.5,95.8333 243.5,96.1667 243.5,96.5C 242.486,97.6737 241.153,98.3404 239.5,98.5C 239.047,97.5416 238.381,96.7083 237.5,96C 234.854,95.5026 232.187,95.3359 229.5,95.5C 232.999,93.2495 236.665,91.2495 240.5,89.5 Z"/></g>
<g><path style="opacity:1" fill="#e197ed" d="M 255.5,88.5 C 252.322,92.3356 248.322,95.0023 243.5,96.5C 243.5,96.1667 243.5,95.8333 243.5,95.5C 244.552,93.744 246.219,93.0773 248.5,93.5C 248.67,92.1779 248.337,91.0113 247.5,90C 249.061,89.6824 250.228,88.8491 251,87.5C 252.356,88.3802 253.856,88.7135 255.5,88.5 Z"/></g>
<g><path style="opacity:1" fill="#e16df4" d="M 225.5,90.5 C 225.737,91.791 225.404,92.791 224.5,93.5C 222.824,94.1834 222.157,95.5168 222.5,97.5C 222.657,98.8734 222.49,100.207 222,101.5C 220.354,102.779 219.187,104.445 218.5,106.5C 217.186,105.687 216.019,104.687 215,103.5C 213.99,107.625 213.823,111.625 214.5,115.5C 213.167,115.5 211.833,115.5 210.5,115.5C 210.843,113.517 210.176,112.183 208.5,111.5C 207.833,111.5 207.167,111.5 206.5,111.5C 204.451,111.294 204.117,110.461 205.5,109C 207.345,107.872 209.345,107.372 211.5,107.5C 210.09,104.05 209.424,100.384 209.5,96.5C 209.5,96.1667 209.5,95.8333 209.5,95.5C 211.213,94.3646 211.88,92.698 211.5,90.5C 213.935,89.7298 215.269,88.0632 215.5,85.5C 218.163,83.9428 220.163,84.6095 221.5,87.5C 222.167,86.5 222.833,85.5 223.5,84.5C 225.283,86.0225 225.949,88.0225 225.5,90.5 Z"/></g>
<g><path style="opacity:1" fill="#da91ea" d="M 224.5,93.5 C 224.586,94.4959 224.252,95.3292 223.5,96C 225.197,96.3845 226.863,96.2178 228.5,95.5C 227.01,97.2798 225.01,97.9465 222.5,97.5C 222.157,95.5168 222.824,94.1834 224.5,93.5 Z"/></g>
<g><path style="opacity:1" fill="#e39aeb" d="M 92.5,94.5 C 91.4582,98.6972 90.1249,102.697 88.5,106.5C 88.5,105.833 88.5,105.167 88.5,104.5C 89.2071,101.214 89.5405,97.8806 89.5,94.5C 90.5,94.5 91.5,94.5 92.5,94.5 Z"/></g>
<g><path style="opacity:1" fill="#dd7eed" d="M 118.5,76.5 C 119.496,76.4142 120.329,76.7476 121,77.5C 121.495,79.4727 121.662,81.4727 121.5,83.5C 119.341,89.1511 116.674,94.4844 113.5,99.5C 112.5,99.5 111.5,99.5 110.5,99.5C 110.5,97.8333 110.5,96.1667 110.5,94.5C 113.205,88.4316 115.872,82.4316 118.5,76.5 Z"/></g>
<g><path style="opacity:1" fill="#db88e9" d="M 277.5,88.5 C 277.372,90.0898 276.705,91.4231 275.5,92.5C 273.051,92.98 270.885,93.98 269,95.5C 268.011,97.9698 266.845,100.303 265.5,102.5C 265.167,102.5 264.833,102.5 264.5,102.5C 265.074,97.4008 267.574,93.4008 272,90.5C 272.414,90.9574 272.914,91.2907 273.5,91.5C 274.852,90.4756 276.185,89.4756 277.5,88.5 Z"/></g>
<g><path style="opacity:1" fill="#e06ef3" d="M 282.5,82.5 C 283.552,82.3505 284.552,82.5172 285.5,83C 282.641,84.6909 281.308,87.1909 281.5,90.5C 280.5,90.5 279.5,90.5 278.5,90.5C 278.205,92.7354 278.539,94.7354 279.5,96.5C 279.427,98.0269 280.094,99.0269 281.5,99.5C 281.877,101.258 282.544,102.925 283.5,104.5C 281.731,105.627 280.397,105.127 279.5,103C 279.833,102.667 280.167,102.333 280.5,102C 278.645,101.578 276.811,101.078 275,100.5C 273.97,100.836 273.47,101.503 273.5,102.5C 272.481,104.507 270.815,105.84 268.5,106.5C 266.712,105.717 265.712,104.384 265.5,102.5C 266.845,100.303 268.011,97.9698 269,95.5C 270.885,93.98 273.051,92.98 275.5,92.5C 276.705,91.4231 277.372,90.0898 277.5,88.5C 278.701,86.0905 280.367,84.0905 282.5,82.5 Z"/></g>
<g><path style="opacity:0.859" fill="#e6b8ee" d="M 279.5,96.5 C 280.906,96.9731 281.573,97.9731 281.5,99.5C 280.094,99.0269 279.427,98.0269 279.5,96.5 Z"/></g>
<g><path style="opacity:1" fill="#dd8ced" d="M 146.5,95.5 C 145.341,99.1513 143.674,102.485 141.5,105.5C 141.784,103.585 141.451,101.919 140.5,100.5C 142.075,98.4403 144.075,96.7736 146.5,95.5 Z"/></g>
<g><path style="opacity:1" fill="#dba0e5" d="M 110.5,94.5 C 110.5,96.1667 110.5,97.8333 110.5,99.5C 111.5,99.5 112.5,99.5 113.5,99.5C 111.337,104.75 109.671,104.416 108.5,98.5C 108.668,96.8295 109.335,95.4961 110.5,94.5 Z"/></g>
<g><path style="opacity:1" fill="#e3a3ef" d="M 235.5,99.5 C 232.916,101.472 229.916,102.472 226.5,102.5C 227.209,101.596 228.209,101.263 229.5,101.5C 229.351,100.448 229.517,99.448 230,98.5C 231.699,99.4061 233.533,99.7394 235.5,99.5 Z"/></g>
<g><path style="opacity:1" fill="#dc88ec" d="M 80.5,83.5 C 80.8333,83.5 81.1667,83.5 81.5,83.5C 81.1518,88.2221 80.4851,92.8888 79.5,97.5C 79.7947,99.7354 79.4614,101.735 78.5,103.5C 77.6723,105.427 77.0056,108.093 76.5,111.5C 77.1667,112.833 77.8333,114.167 78.5,115.5C 74.9458,117.857 72.2792,120.857 70.5,124.5C 74.8515,111.074 78.1848,97.4077 80.5,83.5 Z"/></g>
<g><path style="opacity:1" fill="#df7def" d="M 87.5,104.5 C 87.8333,104.5 88.1667,104.5 88.5,104.5C 88.5,105.167 88.5,105.833 88.5,106.5C 87.2406,113.003 84.9073,119.003 81.5,124.5C 82.0021,120.236 83.0021,116.07 84.5,112C 82.5876,108.959 80.5876,106.126 78.5,103.5C 79.4614,101.735 79.7947,99.7354 79.5,97.5C 80.1499,97.1961 80.8165,96.8627 81.5,96.5C 82.1667,99.5 82.8333,102.5 83.5,105.5C 85.0369,104.802 86.3702,104.469 87.5,104.5 Z"/></g>
<g><path style="opacity:1" fill="#df77f0" d="M 174.5,102.5 C 173.791,103.404 172.791,103.737 171.5,103.5C 171.528,105.582 170.861,107.416 169.5,109C 170.249,110.734 170.749,112.567 171,114.5C 173.405,115.274 175.905,115.774 178.5,116C 177.149,117.617 175.482,118.784 173.5,119.5C 174.313,120.814 175.313,121.981 176.5,123C 180.145,123.719 183.812,124.219 187.5,124.5C 183.125,125.965 178.792,125.631 174.5,123.5C 173.5,121.833 172.167,120.5 170.5,119.5C 168.926,117.898 168.259,115.898 168.5,113.5C 168.66,111.801 168.494,110.134 168,108.5C 166.629,110.041 165.129,111.375 163.5,112.5C 159.509,113.128 158.176,111.795 159.5,108.5C 160.167,107.167 161.167,106.167 162.5,105.5C 164.5,103.833 166.5,102.167 168.5,100.5C 169.15,100.196 169.817,99.8627 170.5,99.5C 171.283,101.288 172.616,102.288 174.5,102.5 Z"/></g>
<g><path style="opacity:1" fill="#de75f0" d="M 134.5,86.5 C 134.41,88.6963 134.077,90.863 133.5,93C 133.583,95.3331 134.583,97.1665 136.5,98.5C 133.928,102.496 133.928,106.496 136.5,110.5C 133.332,110.28 130.332,110.28 127.5,110.5C 127.338,112.527 127.505,114.527 128,116.5C 129.372,117.91 130.205,119.577 130.5,121.5C 129.5,120.833 128.5,120.167 127.5,119.5C 126.596,118.791 126.263,117.791 126.5,116.5C 126.335,113.482 126.502,110.482 127,107.5C 127.5,106.333 128.333,105.5 129.5,105C 129.014,102.973 129.014,100.807 129.5,98.5C 131.186,94.4237 132.853,90.4237 134.5,86.5 Z"/></g>
<g><path style="opacity:1" fill="#df6df2" d="M 309.5,91.5 C 310.167,92.5 310.833,93.5 311.5,94.5C 311.5,94.8333 311.5,95.1667 311.5,95.5C 311.5,99.5 311.5,103.5 311.5,107.5C 309.871,106.375 308.371,105.041 307,103.5C 305.786,107.666 302.952,109.666 298.5,109.5C 298.5,109.167 298.5,108.833 298.5,108.5C 298.5,108.167 298.5,107.833 298.5,107.5C 299.485,103.366 299.818,99.0323 299.5,94.5C 299.833,94.5 300.167,94.5 300.5,94.5C 300.234,99.6719 301.401,100.339 304,96.5C 305.987,97.218 307.821,98.218 309.5,99.5C 309.949,96.9564 309.949,94.2898 309.5,91.5 Z"/></g>
<g><path style="opacity:0.816" fill="#dfafea" d="M 311.5,95.5 C 311.865,100.094 312.865,104.427 314.5,108.5C 313.791,109.404 312.791,109.737 311.5,109.5C 311.5,108.833 311.5,108.167 311.5,107.5C 311.5,103.5 311.5,99.5 311.5,95.5 Z"/></g>
<g><path style="opacity:0.388" fill="#edcef1" d="M 168.5,98.5 C 168.5,99.1667 168.5,99.8333 168.5,100.5C 166.5,102.167 164.5,103.833 162.5,105.5C 163.757,102.573 165.757,100.239 168.5,98.5 Z"/></g>
<g><path style="opacity:1" fill="#de78f0" d="M 228.5,95.5 C 228.833,95.5 229.167,95.5 229.5,95.5C 232.187,95.3359 234.854,95.5026 237.5,96C 238.381,96.7083 239.047,97.5416 239.5,98.5C 238.292,99.2341 236.959,99.5674 235.5,99.5C 233.533,99.7394 231.699,99.4061 230,98.5C 229.517,99.448 229.351,100.448 229.5,101.5C 228.209,101.263 227.209,101.596 226.5,102.5C 224.883,103.038 223.216,103.371 221.5,103.5C 221.5,106.167 221.5,108.833 221.5,111.5C 221.253,113.858 221.919,115.858 223.5,117.5C 220.748,116.797 217.748,116.797 214.5,117.5C 213.465,119.128 213.465,120.795 214.5,122.5C 211.353,120.687 209.353,118.02 208.5,114.5C 208.5,113.5 208.5,112.5 208.5,111.5C 210.176,112.183 210.843,113.517 210.5,115.5C 211.833,115.5 213.167,115.5 214.5,115.5C 213.823,111.625 213.99,107.625 215,103.5C 216.019,104.687 217.186,105.687 218.5,106.5C 219.187,104.445 220.354,102.779 222,101.5C 222.49,100.207 222.657,98.8734 222.5,97.5C 225.01,97.9465 227.01,97.2798 228.5,95.5 Z"/></g>
<g><path style="opacity:1" fill="#db95e6" d="M 129.5,98.5 C 129.014,100.807 129.014,102.973 129.5,105C 128.333,105.5 127.5,106.333 127,107.5C 126.502,110.482 126.335,113.482 126.5,116.5C 124.743,110.101 125.743,104.101 129.5,98.5 Z"/></g>
<g><path style="opacity:1" fill="#e070f3" d="M 181.5,98.5 C 180.367,100.055 179.701,101.889 179.5,104C 180.677,106.688 180.677,109.354 179.5,112C 180.13,113.31 181.13,114.144 182.5,114.5C 185.246,116.126 188.246,116.793 191.5,116.5C 194.313,116.975 196.313,115.975 197.5,113.5C 198.5,113.5 199.5,113.5 200.5,113.5C 200.5,115.167 200.5,116.833 200.5,118.5C 199.167,118.5 197.833,118.5 196.5,118.5C 196.5,119.5 196.5,120.5 196.5,121.5C 193.916,123.472 190.916,124.472 187.5,124.5C 183.812,124.219 180.145,123.719 176.5,123C 175.313,121.981 174.313,120.814 173.5,119.5C 175.482,118.784 177.149,117.617 178.5,116C 175.905,115.774 173.405,115.274 171,114.5C 170.749,112.567 170.249,110.734 169.5,109C 170.861,107.416 171.528,105.582 171.5,103.5C 172.791,103.737 173.791,103.404 174.5,102.5C 174.738,100.355 175.738,98.6885 177.5,97.5C 178.92,85.8592 180.254,86.1925 181.5,98.5 Z"/></g>
<g><path style="opacity:1" fill="#df95eb" d="M 184.5,94.5 C 181.656,100.969 180.989,107.635 182.5,114.5C 181.13,114.144 180.13,113.31 179.5,112C 180.677,109.354 180.677,106.688 179.5,104C 179.701,101.889 180.367,100.055 181.5,98.5C 182.022,96.7809 183.022,95.4475 184.5,94.5 Z"/></g>
<g><path style="opacity:1" fill="#e06ef3" d="M 78.5,103.5 C 80.5876,106.126 82.5876,108.959 84.5,112C 83.0021,116.07 82.0021,120.236 81.5,124.5C 80.8501,124.804 80.1835,125.137 79.5,125.5C 78.8333,124.167 78.1667,122.833 77.5,121.5C 76.8265,123.689 75.8265,125.689 74.5,127.5C 75.0253,128.192 75.6919,128.692 76.5,129C 75.5838,129.374 74.7504,129.874 74,130.5C 73.5045,132.473 73.3379,134.473 73.5,136.5C 72.1266,136.657 70.7932,136.49 69.5,136C 70.4009,133.429 71.7342,131.096 73.5,129C 72.0039,128.493 70.8373,128.993 70,130.5C 69.51,129.207 69.3433,127.873 69.5,126.5C 69.3284,125.508 69.6618,124.842 70.5,124.5C 72.2792,120.857 74.9458,117.857 78.5,115.5C 77.8333,114.167 77.1667,112.833 76.5,111.5C 77.0056,108.093 77.6723,105.427 78.5,103.5 Z"/></g>
<g><path style="opacity:1" fill="#db7dec" d="M 209.5,96.5 C 209.424,100.384 210.09,104.05 211.5,107.5C 209.345,107.372 207.345,107.872 205.5,109C 204.117,110.461 204.451,111.294 206.5,111.5C 206.5,111.833 206.5,112.167 206.5,112.5C 204.833,114.833 202.833,116.833 200.5,118.5C 200.5,116.833 200.5,115.167 200.5,113.5C 199.5,113.5 198.5,113.5 197.5,113.5C 203.74,109.334 207.74,103.667 209.5,96.5 Z"/></g>
<g><path style="opacity:1" fill="#de79ef" d="M 264.5,102.5 C 264.833,102.5 265.167,102.5 265.5,102.5C 265.712,104.384 266.712,105.717 268.5,106.5C 270.815,105.84 272.481,104.507 273.5,102.5C 273.198,105.059 273.532,107.393 274.5,109.5C 274.5,110.167 274.5,110.833 274.5,111.5C 273.065,110.21 272.065,108.544 271.5,106.5C 268.498,113.486 269.498,119.819 274.5,125.5C 269.576,123.001 266.576,119.001 265.5,113.5C 265.48,109.487 264.147,108.82 261.5,111.5C 260.548,109.955 260.215,108.288 260.5,106.5C 261.5,104.833 262.833,103.5 264.5,102.5 Z"/></g>
<g><path style="opacity:1" fill="#dd82ec" d="M 331.5,97.5 C 329.957,102.582 326.957,106.582 322.5,109.5C 321.5,109.833 320.833,110.5 320.5,111.5C 318.171,113.278 315.504,114.278 312.5,114.5C 312.5,114.167 312.5,113.833 312.5,113.5C 312.567,112.041 312.234,110.708 311.5,109.5C 312.791,109.737 313.791,109.404 314.5,108.5C 320.475,105.523 325.142,101.19 328.5,95.5C 331.044,92.6935 332.044,93.3601 331.5,97.5 Z"/></g>
<g><path style="opacity:1" fill="#e06cf6" d="M 311.5,107.5 C 311.5,108.167 311.5,108.833 311.5,109.5C 312.234,110.708 312.567,112.041 312.5,113.5C 311.504,113.586 310.671,113.252 310,112.5C 309.517,113.448 309.351,114.448 309.5,115.5C 308.5,115.5 307.5,115.5 306.5,115.5C 305.911,113.602 305.744,111.602 306,109.5C 303.471,112.626 300.971,112.959 298.5,110.5C 298.5,110.167 298.5,109.833 298.5,109.5C 302.952,109.666 305.786,107.666 307,103.5C 308.371,105.041 309.871,106.375 311.5,107.5 Z"/></g>
<g><path style="opacity:1" fill="#df89ed" d="M 281.5,99.5 C 286.49,103.834 292.157,106.834 298.5,108.5C 298.5,108.833 298.5,109.167 298.5,109.5C 298.5,109.833 298.5,110.167 298.5,110.5C 288.947,109.153 288.447,110.153 297,113.5C 297.585,114.998 297.085,115.998 295.5,116.5C 295.631,115.624 295.298,114.957 294.5,114.5C 287.119,112.112 280.786,108.112 275.5,102.5C 274.526,104.743 274.192,107.076 274.5,109.5C 273.532,107.393 273.198,105.059 273.5,102.5C 273.47,101.503 273.97,100.836 275,100.5C 276.811,101.078 278.645,101.578 280.5,102C 280.167,102.333 279.833,102.667 279.5,103C 280.397,105.127 281.731,105.627 283.5,104.5C 282.544,102.925 281.877,101.258 281.5,99.5 Z"/></g>
<g><path style="opacity:1" fill="#df91ec" d="M 260.5,106.5 C 260.215,108.288 260.548,109.955 261.5,111.5C 264.147,108.82 265.48,109.487 265.5,113.5C 264.778,113.082 264.278,112.416 264,111.5C 262.629,113.041 261.129,114.375 259.5,115.5C 259.165,111.489 257.165,110.489 253.5,112.5C 255.607,110.273 257.94,108.273 260.5,106.5 Z"/></g>
<g><path style="opacity:0.004" fill="#f9f2fb" d="M 322.5,109.5 C 322.5,110.833 321.833,111.5 320.5,111.5C 320.833,110.5 321.5,109.833 322.5,109.5 Z"/></g>
<g><path style="opacity:1" fill="#dd84ec" d="M 159.5,108.5 C 158.176,111.795 159.509,113.128 163.5,112.5C 162.5,113.833 161.5,115.167 160.5,116.5C 158.628,118.604 156.295,119.937 153.5,120.5C 153.351,119.448 153.517,118.448 154,117.5C 154.333,117.833 154.667,118.167 155,118.5C 158.56,114.951 157.727,113.284 152.5,113.5C 154.531,111.478 156.865,109.811 159.5,108.5 Z"/></g>
<g><path style="opacity:0.018" fill="#f7e8fa" d="M 168.5,113.5 C 167.85,113.196 167.183,112.863 166.5,112.5C 164.736,114.278 162.736,115.611 160.5,116.5C 161.5,115.167 162.5,113.833 163.5,112.5C 165.129,111.375 166.629,110.041 168,108.5C 168.494,110.134 168.66,111.801 168.5,113.5 Z"/></g>
<g><path style="opacity:0.424" fill="#deb1e9" d="M 141.5,106.5 C 140.735,109.096 140.401,111.763 140.5,114.5C 139.848,113.551 139.514,112.385 139.5,111C 139.307,108.992 139.974,107.492 141.5,106.5 Z"/></g>
<g><path style="opacity:1" fill="#e06ff2" d="M 298.5,110.5 C 300.971,112.959 303.471,112.626 306,109.5C 305.744,111.602 305.911,113.602 306.5,115.5C 305.631,117.717 305.298,120.05 305.5,122.5C 305.027,123.906 304.027,124.573 302.5,124.5C 303.64,118.315 303.64,116.981 302.5,120.5C 299.794,120.425 297.127,120.092 294.5,119.5C 295.11,118.609 295.443,117.609 295.5,116.5C 297.085,115.998 297.585,114.998 297,113.5C 288.447,110.153 288.947,109.153 298.5,110.5 Z"/></g>
<g><path style="opacity:0.012" fill="#faebfc" d="M 206.5,112.5 C 206.5,112.167 206.5,111.833 206.5,111.5C 207.167,111.5 207.833,111.5 208.5,111.5C 208.5,112.5 208.5,113.5 208.5,114.5C 207.833,113.833 207.167,113.167 206.5,112.5 Z"/></g>
<g><path style="opacity:0.596" fill="#e4b5ec" d="M 140.5,114.5 C 143.388,115.078 146.388,115.078 149.5,114.5C 147.698,115.458 145.698,116.125 143.5,116.5C 141.821,116.715 140.821,116.048 140.5,114.5 Z"/></g>
<g><path style="opacity:1" fill="#dca7e7" d="M 197.5,113.5 C 196.313,115.975 194.313,116.975 191.5,116.5C 193.456,115.508 195.456,114.508 197.5,113.5 Z"/></g>
<g><path style="opacity:0.867" fill="#e5b4ee" d="M 221.5,111.5 C 222.717,114.067 224.384,116.4 226.5,118.5C 225.391,118.443 224.391,118.11 223.5,117.5C 221.919,115.858 221.253,113.858 221.5,111.5 Z"/></g>
<g><path style="opacity:1" fill="#dfa3eb" d="M 253.5,112.5 C 252.145,115.518 249.812,116.851 246.5,116.5C 248.808,115.207 251.142,113.874 253.5,112.5 Z"/></g>
<g><path style="opacity:1" fill="#e193ed" d="M 312.5,113.5 C 312.5,113.833 312.5,114.167 312.5,114.5C 310.177,117.126 307.843,119.793 305.5,122.5C 305.298,120.05 305.631,117.717 306.5,115.5C 307.5,115.5 308.5,115.5 309.5,115.5C 309.351,114.448 309.517,113.448 310,112.5C 310.671,113.252 311.504,113.586 312.5,113.5 Z"/></g>
<g><path style="opacity:1" fill="#e6aeee" d="M 259.5,115.5 C 258.415,117.587 256.749,118.92 254.5,119.5C 255.234,118.292 255.567,116.959 255.5,115.5C 256.833,115.5 258.167,115.5 259.5,115.5 Z"/></g>
<g><path style="opacity:1" fill="#dd8dec" d="M 274.5,111.5 C 277.046,117.699 281.712,120.699 288.5,120.5C 283.897,121.684 279.231,121.351 274.5,119.5C 275.213,116.904 275.213,114.237 274.5,111.5 Z"/></g>
<g><path style="opacity:1" fill="#de6ff2" d="M 152.5,113.5 C 157.727,113.284 158.56,114.951 155,118.5C 154.667,118.167 154.333,117.833 154,117.5C 153.517,118.448 153.351,119.448 153.5,120.5C 153.027,121.906 152.027,122.573 150.5,122.5C 149.041,122.433 147.708,122.766 146.5,123.5C 146.167,123.5 145.833,123.5 145.5,123.5C 144.5,123.5 143.5,123.5 142.5,123.5C 141.833,123.5 141.167,123.5 140.5,123.5C 140.52,121.857 139.853,120.524 138.5,119.5C 140.544,118.935 142.21,117.935 143.5,116.5C 145.698,116.125 147.698,115.458 149.5,114.5C 150.391,113.89 151.391,113.557 152.5,113.5 Z"/></g>
<g><path style="opacity:1" fill="#e3a7ed" d="M 200.5,118.5 C 199.738,120.262 198.404,121.262 196.5,121.5C 196.5,120.5 196.5,119.5 196.5,118.5C 197.833,118.5 199.167,118.5 200.5,118.5 Z"/></g>
<g><path style="opacity:0.988" fill="#e1b5e6" d="M 244.5,117.5 C 243.365,119.213 241.698,119.88 239.5,119.5C 240.78,118.069 242.447,117.402 244.5,117.5 Z"/></g>
<g><path style="opacity:1" fill="#db80ea" d="M 259.5,115.5 C 258.167,115.5 256.833,115.5 255.5,115.5C 255.567,116.959 255.234,118.292 254.5,119.5C 253.71,120.401 252.71,121.068 251.5,121.5C 249.847,121.66 248.514,122.326 247.5,123.5C 246.22,124.931 244.553,125.598 242.5,125.5C 240.214,125.595 238.214,126.262 236.5,127.5C 231.821,127.666 227.155,127.499 222.5,127C 221.263,126.768 220.263,126.268 219.5,125.5C 227.979,125.95 236.312,125.283 244.5,123.5C 244.5,122.5 244.5,121.5 244.5,120.5C 239.305,120.821 234.305,120.487 229.5,119.5C 232.833,119.5 236.167,119.5 239.5,119.5C 241.698,119.88 243.365,119.213 244.5,117.5C 244.842,116.662 245.508,116.328 246.5,116.5C 249.812,116.851 252.145,115.518 253.5,112.5C 257.165,110.489 259.165,111.489 259.5,115.5 Z"/></g>
<g><path style="opacity:0.012" fill="#f7edf9" d="M 127.5,119.5 C 128.5,120.167 129.5,120.833 130.5,121.5C 130.5,121.833 130.5,122.167 130.5,122.5C 128.5,122.5 127.5,121.5 127.5,119.5 Z"/></g>
<g><path style="opacity:1" fill="#df6df3" d="M 140.5,100.5 C 141.451,101.919 141.784,103.585 141.5,105.5C 141.5,105.833 141.5,106.167 141.5,106.5C 139.974,107.492 139.307,108.992 139.5,111C 139.514,112.385 139.848,113.551 140.5,114.5C 140.821,116.048 141.821,116.715 143.5,116.5C 142.21,117.935 140.544,118.935 138.5,119.5C 139.853,120.524 140.52,121.857 140.5,123.5C 137.14,123.384 133.807,123.051 130.5,122.5C 130.5,122.167 130.5,121.833 130.5,121.5C 130.205,119.577 129.372,117.91 128,116.5C 127.505,114.527 127.338,112.527 127.5,110.5C 130.332,110.28 133.332,110.28 136.5,110.5C 136.343,111.873 136.51,113.207 137,114.5C 137.923,112.966 138.423,111.299 138.5,109.5C 137.624,107.177 137.124,104.843 137,102.5C 137.741,101.359 138.575,101.359 139.5,102.5C 140.298,102.043 140.631,101.376 140.5,100.5 Z"/></g>
<g><path style="opacity:0.027" fill="#f5e5f7" d="M 170.5,119.5 C 172.167,120.5 173.5,121.833 174.5,123.5C 172.167,123.167 170.833,121.833 170.5,119.5 Z"/></g>
<g><path style="opacity:1" fill="#df6ff1" d="M 223.5,117.5 C 224.391,118.11 225.391,118.443 226.5,118.5C 227.609,118.557 228.609,118.89 229.5,119.5C 234.305,120.487 239.305,120.821 244.5,120.5C 244.5,121.5 244.5,122.5 244.5,123.5C 236.312,125.283 227.979,125.95 219.5,125.5C 219.167,125.5 218.833,125.5 218.5,125.5C 217.965,123.554 216.632,122.554 214.5,122.5C 213.465,120.795 213.465,119.128 214.5,117.5C 217.748,116.797 220.748,116.797 223.5,117.5 Z"/></g>
<g><path style="opacity:1" fill="#d8a5e0" d="M 28.5,130.5 C 28.5,127.5 28.5,124.5 28.5,121.5C 27.5,121.5 26.5,121.5 25.5,121.5C 26.6412,120.661 27.9745,119.994 29.5,119.5C 29.8333,120.167 30.1667,120.833 30.5,121.5C 30.0092,124.674 29.3425,127.674 28.5,130.5 Z"/></g>
<g><path style="opacity:0.153" fill="#f2def6" d="M 251.5,121.5 C 250.713,123.104 249.38,123.771 247.5,123.5C 248.514,122.326 249.847,121.66 251.5,121.5 Z"/></g>
<g><path style="opacity:0.987" fill="#d68ae1" d="M 130.5,122.5 C 133.807,123.051 137.14,123.384 140.5,123.5C 141.167,123.5 141.833,123.5 142.5,123.5C 140.052,124.473 137.385,124.806 134.5,124.5C 133.005,124.011 131.671,123.345 130.5,122.5 Z"/></g>
<g><path style="opacity:0.014" fill="#faf2fb" d="M 150.5,122.5 C 149.295,124.138 147.962,124.471 146.5,123.5C 147.708,122.766 149.041,122.433 150.5,122.5 Z"/></g>
<g><path style="opacity:1" fill="#dd9be7" d="M 214.5,122.5 C 216.632,122.554 217.965,123.554 218.5,125.5C 216.596,125.262 215.262,124.262 214.5,122.5 Z"/></g>
<g><path style="opacity:0.084" fill="#f7edf8" d="M 142.5,123.5 C 143.5,123.5 144.5,123.5 145.5,123.5C 143.71,124.997 141.544,125.664 139,125.5C 137.293,125.492 135.793,125.158 134.5,124.5C 137.385,124.806 140.052,124.473 142.5,123.5 Z"/></g>
<g><path style="opacity:1" fill="#e06ff3" d="M 274.5,111.5 C 275.213,114.237 275.213,116.904 274.5,119.5C 279.231,121.351 283.897,121.684 288.5,120.5C 288.833,120.5 289.167,120.5 289.5,120.5C 291.292,120.634 292.958,120.301 294.5,119.5C 297.127,120.092 299.794,120.425 302.5,120.5C 303.64,116.981 303.64,118.315 302.5,124.5C 300.824,126.834 298.491,127.834 295.5,127.5C 294.5,127.5 293.5,127.5 292.5,127.5C 286.4,127.623 280.4,126.957 274.5,125.5C 269.498,119.819 268.498,113.486 271.5,106.5C 272.065,108.544 273.065,110.21 274.5,111.5 Z"/></g>
<g><path style="opacity:1" fill="#d89ce7" d="M 295.5,116.5 C 295.443,117.609 295.11,118.609 294.5,119.5C 292.958,120.301 291.292,120.634 289.5,120.5C 291.728,119.623 293.728,118.29 295.5,116.5 Z"/></g>
<g><path style="opacity:0.024" fill="#f3e6f7" d="M 242.5,125.5 C 240.898,127.074 238.898,127.741 236.5,127.5C 238.214,126.262 240.214,125.595 242.5,125.5 Z"/></g>
<g><path style="opacity:1" fill="#d281e1" d="M 274.5,125.5 C 280.4,126.957 286.4,127.623 292.5,127.5C 292.158,128.338 291.492,128.672 290.5,128.5C 286.818,128.665 283.152,128.499 279.5,128C 277.509,127.626 275.842,126.793 274.5,125.5 Z"/></g>
<g><path style="opacity:1" fill="#e187f0" d="M 81.5,124.5 C 79.8225,129.197 77.1558,133.197 73.5,136.5C 73.3379,134.473 73.5045,132.473 74,130.5C 74.7504,129.874 75.5838,129.374 76.5,129C 75.6919,128.692 75.0253,128.192 74.5,127.5C 75.8265,125.689 76.8265,123.689 77.5,121.5C 78.1667,122.833 78.8333,124.167 79.5,125.5C 80.1835,125.137 80.8501,124.804 81.5,124.5 Z"/></g>
<g><path style="opacity:0.008" fill="#f7eaf9" d="M 292.5,127.5 C 293.5,127.5 294.5,127.5 295.5,127.5C 294.121,129.597 292.455,129.93 290.5,128.5C 291.492,128.672 292.158,128.338 292.5,127.5 Z"/></g>
<g><path style="opacity:1" fill="#df76ef" d="M 25.5,121.5 C 26.5,121.5 27.5,121.5 28.5,121.5C 28.5,124.5 28.5,127.5 28.5,130.5C 29.2713,133.454 29.938,136.454 30.5,139.5C 29.8501,139.196 29.1835,138.863 28.5,138.5C 27.9204,135.025 27.0871,131.691 26,128.5C 24.8333,130.667 23.6667,132.833 22.5,135C 22.6448,135.772 22.9781,136.439 23.5,137C 22.3313,139.007 21.6646,141.173 21.5,143.5C 22.5,143.5 23.5,143.5 24.5,143.5C 24.3671,138.728 25.7004,138.562 28.5,143C 27.552,143.483 26.552,143.649 25.5,143.5C 25.5,144.5 25.5,145.5 25.5,146.5C 24.8333,146.5 24.1667,146.5 23.5,146.5C 21.8333,145.5 20.5,144.167 19.5,142.5C 18.8005,138.202 18.4672,133.869 18.5,129.5C 19.3931,125.605 21.7264,122.938 25.5,121.5 Z"/></g>
<g><path style="opacity:0.949" fill="#d09fda" d="M 18.5,129.5 C 18.4672,133.869 18.8005,138.202 19.5,142.5C 17.9666,140.366 17.2999,137.866 17.5,135C 17.5056,132.967 17.8389,131.134 18.5,129.5 Z"/></g>
<g><path style="opacity:1" fill="#dd7ced" d="M 69.5,126.5 C 69.3433,127.873 69.51,129.207 70,130.5C 70.8373,128.993 72.0039,128.493 73.5,129C 71.7342,131.096 70.4009,133.429 69.5,136C 70.7932,136.49 72.1266,136.657 73.5,136.5C 71.8333,138.833 69.8333,140.833 67.5,142.5C 67.32,135.161 65.32,134.661 61.5,141C 60.2068,141.49 58.8734,141.657 57.5,141.5C 62.2295,137.102 66.2295,132.102 69.5,126.5 Z"/></g>
<g><path style="opacity:1" fill="#e16cf3" d="M 30.5,139.5 C 31.6298,141.315 32.2964,143.315 32.5,145.5C 33.8333,145.5 35.1667,145.5 36.5,145.5C 38.0423,146.141 39.3757,147.141 40.5,148.5C 37.5115,148.63 34.5115,148.963 31.5,149.5C 29.9582,148.699 28.2915,148.366 26.5,148.5C 26.1667,147.833 25.8333,147.167 25.5,146.5C 25.5,145.5 25.5,144.5 25.5,143.5C 26.552,143.649 27.552,143.483 28.5,143C 25.7004,138.562 24.3671,138.728 24.5,143.5C 23.5,143.5 22.5,143.5 21.5,143.5C 21.6646,141.173 22.3313,139.007 23.5,137C 22.9781,136.439 22.6448,135.772 22.5,135C 23.6667,132.833 24.8333,130.667 26,128.5C 27.0871,131.691 27.9204,135.025 28.5,138.5C 29.1835,138.863 29.8501,139.196 30.5,139.5 Z"/></g>
<g><path style="opacity:1" fill="#dfade8" d="M 67.5,142.5 C 66.7377,144.262 65.4044,145.262 63.5,145.5C 64.0478,143.468 65.3812,142.468 67.5,142.5 Z"/></g>
<g><path style="opacity:1" fill="#de98e8" d="M 30.5,139.5 C 33.2832,142.553 36.6165,144.553 40.5,145.5C 39.1667,145.5 37.8333,145.5 36.5,145.5C 35.1667,145.5 33.8333,145.5 32.5,145.5C 32.2964,143.315 31.6298,141.315 30.5,139.5 Z"/></g>
<g><path style="opacity:1" fill="#db8bea" d="M 57.5,141.5 C 57.7709,143.38 57.1042,144.713 55.5,145.5C 51.8333,145.5 48.1667,145.5 44.5,145.5C 48.9499,144.896 53.2832,143.563 57.5,141.5 Z"/></g>
<g><path style="opacity:1" fill="#e16cf4" d="M 67.5,142.5 C 65.3812,142.468 64.0478,143.468 63.5,145.5C 63.5,146.167 63.1667,146.5 62.5,146.5C 57.3574,148.126 52.0241,148.626 46.5,148C 49.5,146.926 52.5,146.093 55.5,145.5C 57.1042,144.713 57.7709,143.38 57.5,141.5C 58.8734,141.657 60.2068,141.49 61.5,141C 65.32,134.661 67.32,135.161 67.5,142.5 Z"/></g>
<g><path style="opacity:0.478" fill="#e2bde9" d="M 23.5,146.5 C 24.1667,146.5 24.8333,146.5 25.5,146.5C 25.8333,147.167 26.1667,147.833 26.5,148.5C 24.9731,148.573 23.9731,147.906 23.5,146.5 Z"/></g>
<g><path style="opacity:1" fill="#da7deb" d="M 36.5,145.5 C 37.8333,145.5 39.1667,145.5 40.5,145.5C 41.8333,145.5 43.1667,145.5 44.5,145.5C 48.1667,145.5 51.8333,145.5 55.5,145.5C 52.5,146.093 49.5,146.926 46.5,148C 52.0241,148.626 57.3574,148.126 62.5,146.5C 60.5739,148.293 58.2406,149.293 55.5,149.5C 52.6275,149.802 49.9608,150.469 47.5,151.5C 42.8333,151.5 38.1667,151.5 33.5,151.5C 33.1583,150.662 32.4916,150.328 31.5,150.5C 31.5,150.167 31.5,149.833 31.5,149.5C 34.5115,148.963 37.5115,148.63 40.5,148.5C 39.3757,147.141 38.0423,146.141 36.5,145.5 Z"/></g>
<g><path style="opacity:1" fill="#dea8e8" d="M 26.5,148.5 C 28.2915,148.366 29.9582,148.699 31.5,149.5C 31.5,149.833 31.5,150.167 31.5,150.5C 31.5,150.833 31.5,151.167 31.5,151.5C 31.1667,151.5 30.8333,151.5 30.5,151.5C 29.4097,150.143 28.0764,149.143 26.5,148.5 Z"/></g>
<g><path style="opacity:0.006" fill="#f1def4" d="M 55.5,149.5 C 54.8333,150.167 54.1667,150.833 53.5,151.5C 51.5,151.5 49.5,151.5 47.5,151.5C 49.9608,150.469 52.6275,149.802 55.5,149.5 Z"/></g>
<style>
  g {
    fill: #000;
  }

  @media (prefers-color-scheme: dark) {
    g {
      fill: #FFF;
    }
  }
</style>
</svg>

